<?xml version="1.0" encoding="UTF-8" standalone="no"?><!DOCTYPE svg PUBLIC "-//W3C//DTD SVG 1.1//EN" "http://www.w3.org/Graphics/SVG/1.1/DTD/svg11.dtd"><svg width="100%" height="100%" viewBox="0 0 128 128" version="1.1" xmlns="http://www.w3.org/2000/svg" xmlns:xlink="http://www.w3.org/1999/xlink" xml:space="preserve" xmlns:serif="http://www.serif.com/" style="fill-rule:evenodd;clip-rule:evenodd;stroke-linejoin:round;stroke-miterlimit:2;"><rect id="icon" x="0" y="0" width="128" height="128" style="fill:none;"/><rect id="Carbon-Icons" x="0" y="0" width="128" height="128" style="fill:none;"/><g><path d="M121.6,92.8c-0,2.432 -1.344,4.544 -3.392,5.632l-50.56,28.416c-1.024,0.768 -2.304,1.152 -3.648,1.152c-1.344,-0 -2.624,-0.384 -3.648,-1.152l-50.56,-28.416c-2.048,-1.088 -3.392,-3.2 -3.392,-5.632l-0,-57.6c-0,-2.432 1.344,-4.544 3.392,-5.632l50.56,-28.416c1.024,-0.768 2.304,-1.152 3.648,-1.152c1.344,0 2.624,0.384 3.648,1.152l50.56,28.416c2.048,1.088 3.392,3.2 3.392,5.632l-0,57.6Z" style="fill:url(#_Linear1);fill-rule:nonzero;"/><path d="M63.313,46.259c-0,-9.102 -7.391,-16.492 -16.493,-16.492c-9.103,-0 -16.493,7.39 -16.493,16.492l0,0.041c0,9.102 7.39,16.492 16.493,16.492c9.102,0 16.493,-7.39 16.493,-16.492l-0,-0.041Z" style="fill:#a3b0df;"/><path d="M97.673,75.115c-0,-4.253 -3.453,-7.706 -7.706,-7.706l-15.412,-0c-4.254,-0 -7.706,3.453 -7.706,7.706l-0,15.412c-0,4.253 3.452,7.706 7.706,7.706l15.412,0c4.253,0 7.706,-3.453 7.706,-7.706l-0,-15.412Z" style="fill:#e1e4f4;"/><g><path d="M38.757,68.096c-0.889,-0.89 -2.335,-0.89 -3.224,-0l-3.225,3.225c-0.89,0.89 -0.89,2.335 -0,3.225l22.574,22.574c0.89,0.89 2.335,0.89 3.225,0l3.225,-3.225c0.89,-0.89 0.89,-2.335 -0,-3.225l-22.575,-22.574Z" style="fill:#c2cae9;"/><path d="M32.308,90.67c-0.89,0.89 -0.89,2.335 -0,3.225l3.225,3.225c0.889,0.89 2.335,0.89 3.224,0l22.575,-22.574c0.89,-0.89 0.89,-2.335 -0,-3.225l-3.225,-3.225c-0.89,-0.89 -2.335,-0.89 -3.225,-0l-22.574,22.574Z" style="fill:#c2cae9;"/></g><path d="M80.555,31.948c0.325,-0.651 0.99,-1.062 1.717,-1.062c0.727,0 1.392,0.411 1.717,1.062c3.298,6.591 10.459,20.904 13.481,26.946c0.298,0.595 0.266,1.302 -0.084,1.868c-0.349,0.566 -0.967,0.91 -1.633,0.91l-26.962,0c-0.666,0 -1.284,-0.344 -1.633,-0.91c-0.35,-0.566 -0.382,-1.273 -0.084,-1.868c3.022,-6.042 10.183,-20.355 13.481,-26.946Z" style="fill:#fff;"/></g><defs><linearGradient id="_Linear1" x1="0" y1="0" x2="1" y2="0" gradientUnits="userSpaceOnUse" gradientTransform="matrix(128,127.778,-127.778,128,-9.09494e-15,2.20268e-13)"><stop offset="0" style="stop-color:#3b60d6;stop-opacity:1"/><stop offset="1" style="stop-color:#2e409f;stop-opacity:1"/></linearGradient></defs></svg>